<svg width="402" height="469" viewBox="0 0 402 469" fill="none" xmlns="http://www.w3.org/2000/svg">
<g filter="url(#filter0_d_66_2874)">
<rect width="388" height="455" rx="15" fill="white"/>
<rect x="1.25" y="1.25" width="385.5" height="452.5" rx="13.75" stroke="black" stroke-width="2.5"/>
</g>
<g filter="url(#filter1_d_66_2874)">
<rect x="64.7797" y="41.7797" width="258.33" height="372.681" rx="9.61589" fill="white" stroke="black" stroke-width="1.55933"/>
<rect x="127.043" y="368.228" width="139.621" height="38.0378" rx="6.71256" fill="#2967A0"/>
<path d="M151.271 393.278V392.175H152.367C153.376 392.175 154.257 391.965 155.009 391.546C155.766 391.122 156.354 390.534 156.773 389.782C157.197 389.031 157.409 388.166 157.409 387.189C157.409 386.217 157.197 385.36 156.773 384.619C156.354 383.878 155.766 383.301 155.009 382.887C154.257 382.474 153.376 382.267 152.367 382.267H151.271V381.163H152.367C153.629 381.163 154.732 381.421 155.677 381.937C156.628 382.447 157.366 383.156 157.892 384.063C158.419 384.965 158.682 386.007 158.682 387.189C158.682 388.386 158.419 389.444 157.892 390.362C157.366 391.275 156.628 391.989 155.677 392.505C154.732 393.02 153.629 393.278 152.367 393.278H151.271ZM146.47 393.278V392.175H148.42V382.267H146.47V381.163H151.69V382.267H149.62V392.175H151.69V393.278H146.47ZM164.804 393.431C163.912 393.431 163.131 393.243 162.46 392.867C161.789 392.486 161.265 391.965 160.889 391.305C160.513 390.644 160.325 389.882 160.325 389.017C160.325 388.147 160.513 387.377 160.889 386.705C161.265 386.029 161.789 385.5 162.46 385.118C163.131 384.737 163.912 384.547 164.804 384.547C165.695 384.547 166.477 384.737 167.148 385.118C167.819 385.5 168.343 386.029 168.719 386.705C169.095 387.377 169.282 388.147 169.282 389.017C169.282 389.882 169.095 390.644 168.719 391.305C168.343 391.965 167.819 392.486 167.148 392.867C166.477 393.243 165.695 393.431 164.804 393.431ZM164.804 392.36C165.448 392.36 166.015 392.22 166.503 391.941C166.998 391.662 167.381 391.273 167.655 390.773C167.935 390.268 168.074 389.683 168.074 389.017C168.074 388.346 167.935 387.755 167.655 387.245C167.381 386.735 166.998 386.337 166.503 386.053C166.015 385.763 165.448 385.618 164.804 385.618C164.159 385.618 163.59 385.763 163.096 386.053C162.607 386.337 162.224 386.735 161.944 387.245C161.67 387.755 161.533 388.346 161.533 389.017C161.533 389.683 161.67 390.268 161.944 390.773C162.224 391.273 162.607 391.662 163.096 391.941C163.59 392.22 164.159 392.36 164.804 392.36ZM181.021 384.7H184.911V385.698H183.864L181.182 393.278H179.837L177.122 385.674L178.04 386.842H176.945L177.863 385.674L175.31 393.278H173.956L171.137 385.698H170.082V384.7H174.029V385.698H172.378L175.012 393.278L174.045 392.159H175.165L174.287 393.278L176.913 385.698H175.567V384.7H179.547V385.698H178.234L180.964 393.278L179.982 392.159H181.085L180.255 393.278L182.753 385.698H181.021V384.7ZM188.922 392.279H190.453V393.278H185.998V392.279H187.763V385.698H185.998V384.7H188.922V392.279ZM193.868 392.279V387.793C193.868 387.089 193.71 386.536 193.393 386.133C193.076 385.731 192.577 385.529 191.895 385.529C191.342 385.529 190.84 385.666 190.389 385.94C189.937 386.214 189.58 386.611 189.317 387.132C189.054 387.653 188.922 388.284 188.922 389.025L188.657 387.309H188.979C189.081 386.724 189.277 386.227 189.567 385.819C189.857 385.406 190.227 385.092 190.678 384.877C191.135 384.657 191.659 384.547 192.249 384.547C193.184 384.547 193.879 384.818 194.335 385.36C194.797 385.897 195.028 386.657 195.028 387.64V392.279H196.68V393.278H192.362V392.279H193.868ZM200.552 392.279H202.316V393.278H197.628V392.279H199.392V381.55H197.628V380.551H200.552V392.279ZM207.958 393.431C207.067 393.431 206.285 393.243 205.614 392.867C204.943 392.486 204.419 391.965 204.043 391.305C203.668 390.644 203.48 389.882 203.48 389.017C203.48 388.147 203.668 387.377 204.043 386.705C204.419 386.029 204.943 385.5 205.614 385.118C206.285 384.737 207.067 384.547 207.958 384.547C208.85 384.547 209.631 384.737 210.302 385.118C210.974 385.5 211.497 386.029 211.873 386.705C212.249 387.377 212.437 388.147 212.437 389.017C212.437 389.882 212.249 390.644 211.873 391.305C211.497 391.965 210.974 392.486 210.302 392.867C209.631 393.243 208.85 393.431 207.958 393.431ZM207.958 392.36C208.603 392.36 209.169 392.22 209.658 391.941C210.152 391.662 210.536 391.273 210.81 390.773C211.089 390.268 211.229 389.683 211.229 389.017C211.229 388.346 211.089 387.755 210.81 387.245C210.536 386.735 210.152 386.337 209.658 386.053C209.169 385.763 208.603 385.618 207.958 385.618C207.314 385.618 206.745 385.763 206.251 386.053C205.762 386.337 205.378 386.735 205.099 387.245C204.825 387.755 204.688 388.346 204.688 389.017C204.688 389.683 204.825 390.268 205.099 390.773C205.378 391.273 205.762 391.662 206.251 391.941C206.745 392.22 207.314 392.36 207.958 392.36ZM221.064 393.278C220.844 393.278 220.675 393.208 220.557 393.069C220.444 392.929 220.388 392.733 220.388 392.481V389.903L220.493 389.637L220.436 388.663L220.388 388.155V387.503C220.388 387.062 220.297 386.703 220.114 386.423C219.937 386.144 219.679 385.937 219.341 385.803C219.002 385.669 218.594 385.602 218.116 385.602C217.402 385.602 216.849 385.744 216.457 386.029C216.07 386.308 215.813 386.729 215.684 387.293L214.572 387.06C214.679 386.496 214.881 386.029 215.176 385.658C215.472 385.282 215.864 385.003 216.352 384.82C216.846 384.632 217.448 384.538 218.157 384.538C218.898 384.538 219.518 384.643 220.017 384.853C220.522 385.057 220.903 385.371 221.161 385.795C221.419 386.219 221.548 386.767 221.548 387.438V392.279H222.812V393.278H221.064ZM217.021 393.391C216.129 393.391 215.453 393.195 214.991 392.803C214.529 392.406 214.298 391.823 214.298 391.055C214.298 390.346 214.502 389.806 214.91 389.436C215.319 389.06 215.974 388.778 216.876 388.59L220.734 387.769V388.598L217.069 389.428C216.543 389.551 216.148 389.734 215.885 389.976C215.627 390.212 215.498 390.548 215.498 390.983C215.498 391.455 215.643 391.81 215.933 392.046C216.223 392.277 216.648 392.392 217.206 392.392C217.824 392.392 218.377 392.25 218.865 391.965C219.354 391.681 219.738 391.262 220.017 390.709C220.297 390.156 220.436 389.474 220.436 388.663L220.742 390.564H220.331C220.197 391.46 219.848 392.156 219.284 392.65C218.726 393.144 217.971 393.391 217.021 393.391ZM231.643 393.278V390.072L231.691 389.444V388.421L231.643 387.293V381.55H229.331V380.551H232.803V392.279H234.446V393.278H231.643ZM228.413 384.538C229.121 384.538 229.755 384.694 230.314 385.006C230.877 385.317 231.342 385.763 231.707 386.343C232.072 386.917 232.314 387.607 232.432 388.413L231.691 388.969C231.691 388.308 231.562 387.723 231.304 387.213C231.052 386.703 230.689 386.305 230.217 386.021C229.744 385.731 229.183 385.586 228.533 385.586C227.894 385.586 227.339 385.731 226.866 386.021C226.393 386.311 226.028 386.711 225.771 387.221C225.518 387.731 225.392 388.322 225.392 388.993C225.392 389.659 225.524 390.247 225.787 390.757C226.05 391.267 226.418 391.67 226.89 391.965C227.368 392.255 227.916 392.4 228.533 392.4C229.178 392.4 229.734 392.255 230.201 391.965C230.673 391.67 231.039 391.264 231.296 390.749C231.559 390.233 231.691 389.64 231.691 388.969L231.868 390.797H231.594C231.498 391.27 231.31 391.707 231.03 392.11C230.751 392.508 230.383 392.83 229.927 393.077C229.47 393.319 228.923 393.439 228.284 393.439C227.688 393.439 227.14 393.332 226.64 393.117C226.141 392.897 225.709 392.588 225.344 392.191C224.978 391.788 224.694 391.315 224.49 390.773C224.291 390.231 224.192 389.637 224.192 388.993C224.192 388.123 224.366 387.352 224.715 386.681C225.064 386.01 225.553 385.486 226.181 385.11C226.815 384.729 227.559 384.538 228.413 384.538Z" fill="white"/>
<path d="M242.126 392.133L242.705 394.449C242.806 394.853 243.039 395.211 243.366 395.467C243.694 395.723 244.098 395.862 244.514 395.862H258.384C258.8 395.862 259.204 395.723 259.532 395.467C259.859 395.211 260.092 394.853 260.193 394.449L260.772 392.133M251.449 390.268V379.081V390.268ZM251.449 390.268L247.72 386.539L251.449 390.268ZM251.449 390.268L255.178 386.539L251.449 390.268Z" stroke="white" stroke-width="0.895008" stroke-linecap="round" stroke-linejoin="round"/>
<g filter="url(#filter2_d_66_2874)">
<rect x="76.4746" y="92.566" width="234.492" height="263.58" rx="4.47504" fill="white"/>
<rect x="77.1459" y="93.2372" width="233.15" height="262.237" rx="3.80378" stroke="black" stroke-width="1.34251"/>
</g>
<path d="M141.736 171.252H154.788V184.304H141.736V171.252ZM141.736 262.617H154.788V275.669H141.736V262.617ZM233.101 171.252H246.153V184.304H233.101V171.252Z" fill="black"/>
<path d="M115.632 145.148H272.258V301.774H115.632V145.148Z" fill="white" stroke="black" stroke-width="1.1747" stroke-linejoin="round"/>
<path d="M141.736 171.252H154.789V184.304H141.736V171.252ZM141.736 262.617H154.789V275.67H141.736V262.617ZM233.102 171.252H246.154V184.304H233.102V171.252Z" fill="black" stroke="black" stroke-width="1.1747" stroke-linejoin="round"/>
<path d="M135.21 239.776C137.012 239.776 138.473 238.315 138.473 236.513C138.473 234.711 137.012 233.25 135.21 233.25C133.407 233.25 131.947 234.711 131.947 236.513C131.947 238.315 133.407 239.776 135.21 239.776Z" fill="black"/>
<path d="M128.683 233.25C130.485 233.25 131.946 231.789 131.946 229.987C131.946 228.185 130.485 226.724 128.683 226.724C126.881 226.724 125.42 228.185 125.42 229.987C125.42 231.789 126.881 233.25 128.683 233.25Z" fill="black"/>
<path d="M141.736 233.25C143.538 233.25 144.999 231.789 144.999 229.987C144.999 228.185 143.538 226.724 141.736 226.724C139.934 226.724 138.473 228.185 138.473 229.987C138.473 231.789 139.934 233.25 141.736 233.25Z" fill="black"/>
<path d="M187.419 259.354C189.221 259.354 190.682 257.893 190.682 256.091C190.682 254.289 189.221 252.828 187.419 252.828C185.617 252.828 184.156 254.289 184.156 256.091C184.156 257.893 185.617 259.354 187.419 259.354Z" fill="black"/>
<path d="M206.997 233.25C208.799 233.25 210.26 231.789 210.26 229.987C210.26 228.185 208.799 226.724 206.997 226.724C205.195 226.724 203.734 228.185 203.734 229.987C203.734 231.789 205.195 233.25 206.997 233.25Z" fill="black"/>
<path d="M206.997 200.62C208.799 200.62 210.26 199.159 210.26 197.357C210.26 195.554 208.799 194.094 206.997 194.094C205.195 194.094 203.734 195.554 203.734 197.357C203.734 199.159 205.195 200.62 206.997 200.62Z" fill="black"/>
<path d="M180.892 161.463C182.694 161.463 184.155 160.002 184.155 158.2C184.155 156.398 182.694 154.937 180.892 154.937C179.09 154.937 177.629 156.398 177.629 158.2C177.629 160.002 179.09 161.463 180.892 161.463Z" fill="black"/>
<path d="M226.575 213.672C228.377 213.672 229.838 212.211 229.838 210.409C229.838 208.607 228.377 207.146 226.575 207.146C224.773 207.146 223.312 208.607 223.312 210.409C223.312 212.211 224.773 213.672 226.575 213.672Z" fill="black"/>
<path d="M246.154 213.672C247.956 213.672 249.417 212.211 249.417 210.409C249.417 208.607 247.956 207.146 246.154 207.146C244.352 207.146 242.891 208.607 242.891 210.409C242.891 212.211 244.352 213.672 246.154 213.672Z" fill="black"/>
<path d="M246.154 252.828C247.956 252.828 249.417 251.367 249.417 249.565C249.417 247.763 247.956 246.302 246.154 246.302C244.352 246.302 242.891 247.763 242.891 249.565C242.891 251.367 244.352 252.828 246.154 252.828Z" fill="black"/>
<path d="M252.679 265.881C254.481 265.881 255.942 264.42 255.942 262.618C255.942 260.816 254.481 259.355 252.679 259.355C250.877 259.355 249.416 260.816 249.416 262.618C249.416 264.42 250.877 265.881 252.679 265.881Z" fill="black"/>
<path d="M259.205 291.985C261.008 291.985 262.468 290.524 262.468 288.722C262.468 286.92 261.008 285.459 259.205 285.459C257.403 285.459 255.942 286.92 255.942 288.722C255.942 290.524 257.403 291.985 259.205 291.985Z" fill="black"/>
<path d="M180.892 291.985C182.694 291.985 184.155 290.524 184.155 288.722C184.155 286.92 182.694 285.459 180.892 285.459C179.09 285.459 177.629 286.92 177.629 288.722C177.629 290.524 179.09 291.985 180.892 291.985Z" fill="black"/>
<path d="M220.049 291.985C221.851 291.985 223.312 290.524 223.312 288.722C223.312 286.92 221.851 285.459 220.049 285.459C218.247 285.459 216.786 286.92 216.786 288.722C216.786 290.524 218.247 291.985 220.049 291.985Z" fill="black"/>
<path d="M226.575 285.459C228.377 285.459 229.838 283.998 229.838 282.196C229.838 280.394 228.377 278.933 226.575 278.933C224.773 278.933 223.312 280.394 223.312 282.196C223.312 283.998 224.773 285.459 226.575 285.459Z" fill="black"/>
<path d="M220.049 278.933C221.851 278.933 223.312 277.472 223.312 275.67C223.312 273.867 221.851 272.407 220.049 272.407C218.247 272.407 216.786 273.867 216.786 275.67C216.786 277.472 218.247 278.933 220.049 278.933Z" fill="black"/>
<path d="M128.683 213.672C130.485 213.672 131.946 212.211 131.946 210.409C131.946 208.607 130.485 207.146 128.683 207.146C126.881 207.146 125.42 208.607 125.42 210.409C125.42 212.211 126.881 213.672 128.683 213.672Z" fill="black"/>
<path d="M206.997 285.459C208.799 285.459 210.26 283.998 210.26 282.196C210.26 280.394 208.799 278.933 206.997 278.933C205.195 278.933 203.734 280.394 203.734 282.196C203.734 283.998 205.195 285.459 206.997 285.459Z" fill="black"/>
<path d="M115.632 145.148H272.258V301.774H115.632V145.148Z" stroke="black" stroke-width="1.1747" stroke-linejoin="round"/>
<path d="M128.684 158.2H167.84V197.356H128.684V158.2Z" stroke="black" stroke-width="1.1747" stroke-linejoin="round"/>
<path d="M141.736 171.252H154.788V184.304H141.736V171.252ZM128.684 249.565H167.84V288.722H128.684V249.565Z" stroke="black" stroke-width="1.1747" stroke-linejoin="round"/>
<path d="M141.736 262.617H154.788V275.67H141.736V262.617ZM220.049 158.2H259.205V197.356H220.049V158.2Z" stroke="black" stroke-width="1.1747" stroke-linejoin="round"/>
<path d="M233.101 171.252H246.153V184.304H233.101V171.252Z" stroke="black" stroke-width="1.1747" stroke-linejoin="round"/>
<path d="M193.945 171.252H180.892M135.21 223.461V216.935H161.314L135.21 223.461ZM141.736 216.935V210.409V216.935ZM154.788 216.935V236.513V216.935ZM154.788 229.987H161.314H154.788ZM200.471 210.409V203.883V210.409ZM259.206 216.935H252.679H259.206ZM213.523 243.039H220.049V236.513L213.523 243.039ZM167.84 210.409H174.366H167.84ZM187.419 210.409H206.997H187.419ZM200.471 158.2V171.252H193.945V197.356L200.471 158.2ZM193.945 190.83H180.892V197.356L193.945 190.83Z" stroke="black" stroke-width="1.1747" stroke-linecap="round" stroke-linejoin="round"/>
<path d="M180.892 249.565V243.039H200.47V262.618H213.523V256.091H239.627V288.722M193.944 177.778H187.418V164.726L193.944 177.778ZM167.84 223.461H193.944H167.84ZM174.366 223.461V236.513H167.84L174.366 223.461ZM187.418 223.461V229.987V223.461Z" stroke="black" stroke-width="1.1747" stroke-linecap="round" stroke-linejoin="round"/>
<path d="M206.997 177.778V184.304M193.945 236.513V249.565H213.523L193.945 236.513ZM226.575 236.513H213.523V262.617H220.049L226.575 236.513ZM233.101 216.935V229.987H239.627V243.039H233.101V256.091V216.935ZM239.627 229.987V223.461H246.153L239.627 229.987ZM246.153 269.143H233.101V275.67L246.153 269.143ZM180.892 275.67H187.418V282.196H193.945V269.143L180.892 275.67ZM259.206 210.409V229.987H252.679L259.206 210.409ZM220.049 223.461V216.935V223.461ZM259.206 243.039V249.565V243.039ZM252.679 275.67H259.206H252.679Z" stroke="black" stroke-width="1.1747" stroke-linecap="round" stroke-linejoin="round"/>
<rect x="76.4746" y="51.3957" width="234.492" height="28.6402" rx="6.71256" fill="#7CB7EE"/>
<path d="M184.073 59.3308H189.059V60.4343H187.158V66.7737C187.158 67.7671 186.978 68.6264 186.618 69.3513C186.259 70.0709 185.727 70.6267 185.024 71.0187C184.325 71.4107 183.461 71.6067 182.43 71.6067C181.404 71.6067 180.54 71.4107 179.836 71.0187C179.138 70.6267 178.609 70.0709 178.249 69.3513C177.889 68.6264 177.71 67.7671 177.71 66.7737V60.4343H175.809V59.3308H180.859V60.4343H178.918V66.7737C178.918 67.5309 179.047 68.186 179.304 68.7391C179.568 69.2869 179.96 69.7084 180.481 70.0038C181.001 70.2991 181.657 70.4468 182.446 70.4468C183.235 70.4468 183.896 70.2991 184.428 70.0038C184.959 69.703 185.357 69.2788 185.62 68.7311C185.888 68.1833 186.022 67.5309 186.022 66.7737V60.4343H184.073V59.3308ZM196.738 65.1143C197.125 65.1573 197.463 65.2781 197.753 65.4768C198.043 65.6701 198.247 65.9413 198.365 66.2904L199.847 70.3421H201.177V71.4456H198.961L197.399 66.9831C197.248 66.5696 197.068 66.2823 196.859 66.1212C196.655 65.9548 196.352 65.8715 195.949 65.8715H195.353L196.738 65.1143ZM194.024 60.4343V59.3308H196.223C197.603 59.3308 198.639 59.6074 199.332 60.1605C200.025 60.7136 200.371 61.4734 200.371 62.4401C200.371 62.961 200.264 63.4362 200.049 63.8658C199.839 64.29 199.539 64.6471 199.147 64.9371C198.76 65.2217 198.295 65.4177 197.753 65.5251V65.7426L196.166 65.8715H192.686V64.8002H196.158C196.803 64.8002 197.348 64.7089 197.793 64.5263C198.239 64.3437 198.575 64.0833 198.8 63.745C199.026 63.4067 199.139 63.0012 199.139 62.5287C199.139 61.8359 198.875 61.315 198.349 60.966C197.828 60.6116 197.103 60.4343 196.174 60.4343H194.024ZM189.706 60.4343V59.3308H194.805V60.4343H192.856V70.3421H194.805V71.4456H189.706V70.3421H191.655V60.4343H189.706ZM202.025 60.4343V59.3308H207.188V60.4343H205.174V70.3421H211.224V71.4456H202.025V70.3421H203.974V60.4343H202.025ZM211.949 67.402V71.4456H210.74V67.402H211.949Z" fill="white"/>
<path d="M291.724 59.003C291.724 58.4096 291.96 57.8405 292.38 57.4209C292.799 57.0012 293.368 56.7655 293.962 56.7655H300.674C301.268 56.7655 301.837 57.0012 302.257 57.4209C302.676 57.8405 302.912 58.4096 302.912 59.003V64.8284C301.858 64.5292 300.743 64.5168 299.683 64.7925C298.623 65.0682 297.655 65.622 296.881 66.3967C296.106 67.1714 295.552 68.1389 295.276 69.1992C295.001 70.2595 295.013 71.3742 295.312 72.4281H293.962C293.368 72.4281 292.799 72.1924 292.38 71.7728C291.96 71.3532 291.724 70.784 291.724 70.1906V59.003ZM296.487 74.6657C296.202 74.3206 295.955 73.9454 295.752 73.5469H293.402C292.661 73.5469 291.949 73.2522 291.425 72.7277C290.9 72.2032 290.606 71.4918 290.606 70.75V59.3029C290.265 59.4992 289.983 59.7817 289.787 60.1218C289.59 60.4619 289.487 60.8478 289.487 61.2405V70.75C289.487 71.7885 289.899 72.7845 290.634 73.5188C291.368 74.2531 292.364 74.6657 293.402 74.6657H296.487ZM306.268 70.75C306.268 72.0852 305.738 73.3657 304.794 74.3099C303.85 75.254 302.569 75.7844 301.234 75.7844C299.899 75.7844 298.618 75.254 297.674 74.3099C296.73 73.3657 296.199 72.0852 296.199 70.75C296.199 69.4148 296.73 68.1343 297.674 67.1901C298.618 66.246 299.899 65.7156 301.234 65.7156C302.569 65.7156 303.85 66.246 304.794 67.1901C305.738 68.1343 306.268 69.4148 306.268 70.75ZM301.793 68.5125C301.793 68.3641 301.734 68.2218 301.629 68.1169C301.524 68.012 301.382 67.9531 301.234 67.9531C301.085 67.9531 300.943 68.012 300.838 68.1169C300.733 68.2218 300.674 68.3641 300.674 68.5125V70.1906H298.996C298.848 70.1906 298.706 70.2496 298.601 70.3545C298.496 70.4594 298.437 70.6016 298.437 70.75C298.437 70.8984 298.496 71.0406 298.601 71.1455C298.706 71.2504 298.848 71.3094 298.996 71.3094H300.674V72.9875C300.674 73.1359 300.733 73.2782 300.838 73.3831C300.943 73.488 301.085 73.5469 301.234 73.5469C301.382 73.5469 301.524 73.488 301.629 73.3831C301.734 73.2782 301.793 73.1359 301.793 72.9875V71.3094H303.471C303.62 71.3094 303.762 71.2504 303.867 71.1455C303.972 71.0406 304.031 70.8984 304.031 70.75C304.031 70.6016 303.972 70.4594 303.867 70.3545C303.762 70.2496 303.62 70.1906 303.471 70.1906H301.793V68.5125Z" fill="white"/>
</g>
<defs>
<filter id="filter0_d_66_2874" x="0" y="0" width="402" height="469" filterUnits="userSpaceOnUse" color-interpolation-filters="sRGB">
<feFlood flood-opacity="0" result="BackgroundImageFix"/>
<feColorMatrix in="SourceAlpha" type="matrix" values="0 0 0 0 0 0 0 0 0 0 0 0 0 0 0 0 0 0 127 0" result="hardAlpha"/>
<feOffset dx="7" dy="7"/>
<feGaussianBlur stdDeviation="3.5"/>
<feComposite in2="hardAlpha" operator="out"/>
<feColorMatrix type="matrix" values="0 0 0 0 0 0 0 0 0 0 0 0 0 0 0 0 0 0 0.3 0"/>
<feBlend mode="normal" in2="BackgroundImageFix" result="effect1_dropShadow_66_2874"/>
<feBlend mode="normal" in="SourceGraphic" in2="effect1_dropShadow_66_2874" result="shape"/>
</filter>
<filter id="filter1_d_66_2874" x="64" y="41" width="287.406" height="401.758" filterUnits="userSpaceOnUse" color-interpolation-filters="sRGB">
<feFlood flood-opacity="0" result="BackgroundImageFix"/>
<feColorMatrix in="SourceAlpha" type="matrix" values="0 0 0 0 0 0 0 0 0 0 0 0 0 0 0 0 0 0 127 0" result="hardAlpha"/>
<feOffset dx="13.7588" dy="13.7588"/>
<feGaussianBlur stdDeviation="6.87941"/>
<feComposite in2="hardAlpha" operator="out"/>
<feColorMatrix type="matrix" values="0 0 0 0 0 0 0 0 0 0 0 0 0 0 0 0 0 0 0.4 0"/>
<feBlend mode="normal" in2="BackgroundImageFix" result="effect1_dropShadow_66_2874"/>
<feBlend mode="normal" in="SourceGraphic" in2="effect1_dropShadow_66_2874" result="shape"/>
</filter>
<filter id="filter2_d_66_2874" x="76.4746" y="92.566" width="240.757" height="269.845" filterUnits="userSpaceOnUse" color-interpolation-filters="sRGB">
<feFlood flood-opacity="0" result="BackgroundImageFix"/>
<feColorMatrix in="SourceAlpha" type="matrix" values="0 0 0 0 0 0 0 0 0 0 0 0 0 0 0 0 0 0 127 0" result="hardAlpha"/>
<feOffset dx="3.13253" dy="3.13253"/>
<feGaussianBlur stdDeviation="1.56626"/>
<feComposite in2="hardAlpha" operator="out"/>
<feColorMatrix type="matrix" values="0 0 0 0 0 0 0 0 0 0 0 0 0 0 0 0 0 0 0.3 0"/>
<feBlend mode="normal" in2="BackgroundImageFix" result="effect1_dropShadow_66_2874"/>
<feBlend mode="normal" in="SourceGraphic" in2="effect1_dropShadow_66_2874" result="shape"/>
</filter>
</defs>
</svg>
